
        <svg xmlns="http://www.w3.org/2000/svg" xmlns:xlink="http://www.w3.org/1999/xlink" version="1.1" width="3300" 
        height="1316.522406628786" viewBox="0 0 3300 1316.522406628786">
			
			<g transform="scale(15) translate(10, 10)">
				<defs id="SvgjsDefs1267"></defs><g id="SvgjsG1268" featureKey="symbolFeature-0" transform="matrix(0.08396966964691344,0,0,0.08396966964691344,64.6697602147857,-7.630201108998838)" fill="#000000"><path xmlns="http://www.w3.org/2000/svg" d="M420.8,195.5c0-0.9,3.3-90.5-75.9-102.4c-29.5-4.4-69.3-2.1-90.6,5.2c-46,15.9-78.4,61-104.4,97.3  c-17,23.7-31.7,44.2-44.8,49.3c-14.5,5.6-17.7,13.4-17.8,19c-0.2,9,7.7,17.7,20.9,23.4c19.8,8.5,48.3,8.7,67.1-9.9  c26.8-26.5,35.3-24.6,36.8-23.9c2.6,1.2,3.3,7.2,3.2,10.1l0,0.3c-0.1,6.5-2.7,157.8,2.1,183.8c3.9,18.5,13.9,28.5,29.8,28.5  c7.1,0,13.6-2.5,18.8-6.7c2.4,14.1,14.7,24.8,29.4,24.8c7.9,0,15.1-3.1,20.5-8.2c4.4,11,15.2,18.8,27.7,18.8  c12.5,0,23.3-7.8,27.7-18.8c5.3,5.1,12.6,8.2,20.5,8.2c14.1,0,26.4-10,29.2-23.9c0.4-2,0.6-4,0.6-6  C421.6,463,420.9,206.1,420.8,195.5z M409.7,468.3c-1.7,8.5-9.3,14.7-18,14.7c-10.1,0-18.4-8.2-18.4-18.4h0V339.4  c0-3.2-2.6-5.7-5.7-5.7c-3.2,0-5.7,2.6-5.7,5.7v128.8c0,0.1,0,0.2,0,0.3v6.6c0,10.1-8.2,18.4-18.4,18.4c-10.1,0-18.4-8.2-18.4-18.4  v-9.8v-0.8V339.4c0-3.2-2.6-5.7-5.7-5.7c-3.2,0-5.7,2.6-5.7,5.7v125.1c0,10.1-8.2,18.4-18.4,18.4s-18.4-8.2-18.4-18.4v-13.3v-4.9  v-107c0-3.2-2.6-5.7-5.7-5.7s-5.7,2.6-5.7,5.7v107c0,10.1-8.2,18.4-18.4,18.4c-9.9,0-15.5-8.6-18.3-18l-0.8-5.6  c-3-27.8-2.2-125.8-1.3-176.9c0.1-2.3,0.5-16.4-9.8-21.2c-10.8-5-26.6,3.3-49.7,26.2c-14.9,14.8-38.7,14.2-54.5,7.5  c-9.3-4-14-9.4-14-12.6c0.1-2.8,4-6,10.4-8.5c16.3-6.3,31.9-28.1,50-53.3c25-34.9,56.2-78.4,98.8-93.1c19.5-6.7,57.7-8.8,85.2-4.7  c68.9,10.3,66.3,87.2,66.2,90.8c0,2.7,0.7,267.7,0.7,269.3C410.1,465.8,409.9,467.1,409.7,468.3l5.6,1.1L409.7,468.3z"></path><path xmlns="http://www.w3.org/2000/svg" d="M419.9,464.6c0,2,0.2,4,0.6,6c2.8,13.8,15.1,23.9,29.2,23.9c7.9,0,15.1-3.1,20.5-8.2c4.4,11,15.2,18.8,27.7,18.8  c12.5,0,23.3-7.8,27.7-18.8c5.3,5.1,12.6,8.2,20.5,8.2c14.7,0,27-10.8,29.4-24.8c5.1,4.2,11.7,6.7,18.8,6.7  c15.9,0,25.9-10,29.8-28.5c4.8-26,2.2-177.3,2.1-183.8l0-0.3c-0.2-2.9,0.5-9,3.2-10.1c1.4-0.7,10-2.6,36.8,23.9  c18.8,18.6,47.2,18.4,67.1,9.9c13.3-5.7,21.1-14.4,20.9-23.4c-0.1-5.6-3.3-13.4-17.8-19c-13.1-5-27.8-25.5-44.8-49.3  c-26-36.3-58.3-81.4-104.4-97.3c-21.3-7.3-61.1-9.6-90.6-5.2c-79.2,11.9-76,101.5-75.9,102.4C420.5,206.1,419.9,463,419.9,464.6z   M426.1,469.4l5.6-1.1c-0.2-1.2-0.4-2.4-0.4-3.7c0-1.6,0.7-266.7,0.7-269.3c-0.2-3.5-2.8-80.4,66.2-90.8c27.5-4.1,65.7-2,85.2,4.7  c42.6,14.7,73.7,58.2,98.8,93.1c18.1,25.2,33.7,47,50,53.3c6.5,2.5,10.4,5.7,10.4,8.5c0.1,3.3-4.7,8.7-14,12.6  c-15.8,6.7-39.5,7.3-54.5-7.5c-23.1-22.8-38.8-31.1-49.7-26.2c-10.4,4.8-10,18.9-9.8,21.2c0.9,51.1,1.7,149.1-1.3,176.9l-0.8,5.6  c-2.9,9.4-8.4,18-18.3,18c-10.1,0-18.4-8.2-18.4-18.4v-107c0-3.2-2.6-5.7-5.7-5.7s-5.7,2.6-5.7,5.7v107v4.9v13.3  c0,10.1-8.2,18.4-18.4,18.4s-18.4-8.2-18.4-18.4V339.4c0-3.2-2.6-5.7-5.7-5.7c-3.2,0-5.7,2.6-5.7,5.7v125.1v0.8v9.8  c0,10.1-8.2,18.4-18.4,18.4c-10.1,0-18.4-8.2-18.4-18.4v-6.6c0-0.1,0-0.2,0-0.3V339.4c0-3.2-2.6-5.7-5.7-5.7c-3.2,0-5.7,2.6-5.7,5.7  v125.1h0c0,10.1-8.2,18.4-18.4,18.4c-8.7,0-16.3-6.2-18-14.7L426.1,469.4z"></path></g><g id="SvgjsG1269" featureKey="nameFeature-0" transform="matrix(0.44581560800879005,0,0,0.44581560800879005,-0.26748953487043214,49.79287483789389)" fill="#000000"><path d="M12.96 40 l-1.56 -14.92 l-0.08 0 l-1.56 14.92 l-6.04 0 l-3.12 -28 l4.28 0 l2.32 22.08 l0.08 0 l2.08 -22.08 l4.24 0 l2.16 22.24 l0.08 0 l2.24 -22.24 l3.84 0 l-3.12 28 l-5.84 0 z M37.608 12 l4.48 28 l-4.44 0 l-0.76 -5.08 l-5.4 0 l-0.76 5.08 l-4.04 0 l4.48 -28 l6.44 0 z M34.128 16.96 l-2.08 14.16 l4.24 0 l-2.08 -14.16 l-0.08 0 z M62.135999999999996 40 l-4.48 0 c-0.24 -0.72 -0.4 -1.16 -0.4 -3.44 l0 -4.4 c0 -2.6 -0.88 -3.56 -2.88 -3.56 l-1.52 0 l0 11.4 l-4.4 0 l0 -28 l6.64 0 c4.56 0 6.52 2.12 6.52 6.44 l0 2.2 c0 2.88 -0.92 4.72 -2.88 5.64 l0 0.08 c2.2 0.92 2.92 3 2.92 5.92 l0 4.32 c0 1.36 0.04 2.36 0.48 3.4 z M54.97599999999999 16 l-2.12 0 l0 8.6 l1.72 0 c1.64 0 2.64 -0.72 2.64 -2.96 l0 -2.76 c0 -2 -0.68 -2.88 -2.24 -2.88 z M82.544 40 l-4.48 0 c-0.24 -0.72 -0.4 -1.16 -0.4 -3.44 l0 -4.4 c0 -2.6 -0.88 -3.56 -2.88 -3.56 l-1.52 0 l0 11.4 l-4.4 0 l0 -28 l6.64 0 c4.56 0 6.52 2.12 6.52 6.44 l0 2.2 c0 2.88 -0.92 4.72 -2.88 5.64 l0 0.08 c2.2 0.92 2.92 3 2.92 5.92 l0 4.32 c0 1.36 0.04 2.36 0.48 3.4 z M75.384 16 l-2.12 0 l0 8.6 l1.72 0 c1.64 0 2.64 -0.72 2.64 -2.96 l0 -2.76 c0 -2 -0.68 -2.88 -2.24 -2.88 z M99.032 12 l4.48 28 l-4.44 0 l-0.76 -5.08 l-5.4 0 l-0.76 5.08 l-4.04 0 l4.48 -28 l6.44 0 z M95.55199999999999 16.96 l-2.08 14.16 l4.24 0 l-2.08 -14.16 l-0.08 0 z M119.28 40 l-5.4 -20.28 l-0.08 0 l0 20.28 l-3.96 0 l0 -28 l5.52 0 l4.44 16.76 l0.08 0 l0 -16.76 l3.92 0 l0 28 l-4.52 0 z M130.00799999999998 16 l0 -4 l13.6 0 l0 4 l-4.6 0 l0 24 l-4.4 0 l0 -24 l-4.6 0 z M153.976 40 l0 -9.28 l-5.56 -18.72 l4.6 0 l3.32 12.76 l0.08 0 l3.32 -12.76 l4.2 0 l-5.56 18.72 l0 9.28 l-4.4 0 z M189.152 29.560000000000002 l4.16 0 l0 3.72 c0 4.48 -2.24 7.04 -6.56 7.04 s-6.56 -2.56 -6.56 -7.04 l0 -14.56 c0 -4.48 2.24 -7.04 6.56 -7.04 s6.56 2.56 6.56 7.04 l0 2.72 l-4.16 0 l0 -3 c0 -2 -0.88 -2.76 -2.28 -2.76 s-2.28 0.76 -2.28 2.76 l0 15.12 c0 2 0.88 2.72 2.28 2.72 s2.28 -0.72 2.28 -2.72 l0 -4 z M204.35999999999999 18.44 l0 15.12 c0 2 0.88 2.76 2.28 2.76 s2.28 -0.76 2.28 -2.76 l0 -15.12 c0 -2 -0.88 -2.76 -2.28 -2.76 s-2.28 0.76 -2.28 2.76 z M199.96 33.28 l0 -14.56 c0 -4.48 2.36 -7.04 6.68 -7.04 s6.68 2.56 6.68 7.04 l0 14.56 c0 4.48 -2.36 7.04 -6.68 7.04 s-6.68 -2.56 -6.68 -7.04 z M226.568 12 l3.2 19.88 l0.08 0 l2.96 -19.88 l6.12 0 l0 28 l-4.16 0 l0 -20.08 l-0.08 0 l-2.96 20.08 l-4.16 0 l-3.2 -19.8 l-0.08 0 l0 19.8 l-3.84 0 l0 -28 l6.12 0 z M252.936 12 c4.4 0 6.56 2.44 6.56 6.92 l0 3.64 c0 4.48 -2.16 6.92 -6.56 6.92 l-2.08 0 l0 10.52 l-4.4 0 l0 -28 l6.48 0 z M252.936 16 l-2.08 0 l0 9.48 l2.08 0 c1.4 0 2.16 -0.64 2.16 -2.64 l0 -4.2 c0 -2 -0.76 -2.64 -2.16 -2.64 z M275.10400000000004 12 l4.48 28 l-4.44 0 l-0.76 -5.08 l-5.4 0 l-0.76 5.08 l-4.04 0 l4.48 -28 l6.44 0 z M271.624 16.96 l-2.08 14.16 l4.24 0 l-2.08 -14.16 l-0.08 0 z M295.35200000000003 40 l-5.4 -20.28 l-0.08 0 l0 20.28 l-3.96 0 l0 -28 l5.52 0 l4.44 16.76 l0.08 0 l0 -16.76 l3.92 0 l0 28 l-4.52 0 z M311.4800000000001 40 l0 -9.28 l-5.56 -18.72 l4.6 0 l3.32 12.76 l0.08 0 l3.32 -12.76 l4.2 0 l-5.56 18.72 l0 9.28 l-4.4 0 z M351.73600000000005 40 l-4.48 0 c-0.24 -0.72 -0.4 -1.16 -0.4 -3.44 l0 -4.4 c0 -2.6 -0.88 -3.56 -2.88 -3.56 l-1.52 0 l0 11.4 l-4.4 0 l0 -28 l6.64 0 c4.56 0 6.52 2.12 6.52 6.44 l0 2.2 c0 2.88 -0.92 4.72 -2.88 5.64 l0 0.08 c2.2 0.92 2.92 3 2.92 5.92 l0 4.32 c0 1.36 0.04 2.36 0.48 3.4 z M344.5760000000001 16 l-2.12 0 l0 8.6 l1.72 0 c1.64 0 2.64 -0.72 2.64 -2.96 l0 -2.76 c0 -2 -0.68 -2.88 -2.24 -2.88 z M362.8640000000001 16 l0 7.8 l6.04 0 l0 4 l-6.04 0 l0 8.2 l7.6 0 l0 4 l-12 0 l0 -28 l12 0 l0 4 l-7.6 0 z M380.7920000000001 12 l3.32 22.84 l0.08 0 l3.32 -22.84 l4.04 0 l-4.32 28 l-6.56 0 l-4.32 -28 l4.44 0 z M397.92000000000013 40 l0 -28 l4.4 0 l0 28 l-4.4 0 z M414.2480000000001 16 l0 7.8 l6.04 0 l0 4 l-6.04 0 l0 8.2 l7.6 0 l0 4 l-12 0 l0 -28 l12 0 l0 4 l-7.6 0 z M440.2560000000001 40 l-1.56 -14.92 l-0.08 0 l-1.56 14.92 l-6.04 0 l-3.12 -28 l4.28 0 l2.32 22.08 l0.08 0 l2.08 -22.08 l4.24 0 l2.16 22.24 l0.08 0 l2.24 -22.24 l3.84 0 l-3.12 28 l-5.84 0 z"></path></g>
			</g>
		</svg>
	